<svg xmlns="http://www.w3.org/2000/svg" width="20" height="18" viewBox="0 0 20 18">
    <path id="search" d="M20.441,15.535,17.063,12.49l-2.6-.968a6.136,6.136,0,0,0,1.327-3.788c0-3.645-3.289-6.61-7.333-6.61S1.125,4.09,1.125,7.735s3.289,6.61,7.333,6.61a7.852,7.852,0,0,0,4.234-1.216l1.071,2.336,3.378,3.045a2.517,2.517,0,0,0,3.3,0,1.96,1.96,0,0,0,0-2.975ZM2.458,7.735c0-2.982,2.692-5.408,6-5.408s6,2.426,6,5.408-2.692,5.408-6,5.408S2.458,10.717,2.458,7.735ZM19.5,17.659a1.08,1.08,0,0,1-1.414,0l-3.19-2.876-1-2.172,2.41.9,3.19,2.876a.841.841,0,0,1,0,1.274Z" transform="translate(-1.125 -1.125)" fill="#3d3d3d"/>
  </svg>
  