<svg xmlns="http://www.w3.org/2000/svg" width="26" height="26" viewBox="0 0 26 26">
    <g id="Groupe_8" data-name="Groupe 8" transform="translate(-327 -903)">
      <circle id="Ellipse_9" data-name="Ellipse 9" cx="13" cy="13" r="13" transform="translate(327 903)" fill="#002d5e"/>
      <path id="send" d="M15.681,9.034l0,0-13.5-5.6a.745.745,0,0,0-.7.068.779.779,0,0,0-.352.651v3.58a.759.759,0,0,0,.617.745L9.1,9.839a.126.126,0,0,1,0,.249L1.742,11.448a.759.759,0,0,0-.617.744v3.581a.745.745,0,0,0,.335.623.756.756,0,0,0,.418.126.776.776,0,0,0,.3-.061l13.5-5.566.006,0a1.011,1.011,0,0,0,0-1.858Z" transform="translate(332.7 906.45)" fill="#fff"/>
    </g>
  </svg>
  