<svg xmlns="http://www.w3.org/2000/svg" width="17.571" height="17.62" viewBox="0 0 17.571 17.62">
    <g id="message" transform="translate(-47.25 80.75)">
      <g id="Groupe_423" data-name="Groupe 423" transform="translate(48 -80)">
        <path id="Tracé_2933" data-name="Tracé 2933" d="M16,11H16" transform="translate(-4.75 -3.767)" fill="none" stroke="#fff" stroke-linecap="round" stroke-linejoin="round" stroke-width="2"/>
        <path id="Tracé_2934" data-name="Tracé 2934" d="M12,11H12" transform="translate(-3.963 -3.767)" fill="none" stroke="#fff" stroke-linecap="round" stroke-linejoin="round" stroke-width="2"/>
        <path id="Tracé_2935" data-name="Tracé 2935" d="M7.995,11H8" transform="translate(-3.177 -3.767)" fill="none" stroke="#fff" stroke-linecap="round" stroke-linejoin="round" stroke-width="2"/>
        <path id="Tracé_2932" data-name="Tracé 2932" d="M7.223,15.661h-.4c-3.214,0-4.821-.8-4.821-4.821V6.821Q2,2,6.821,2H13.25q4.821,0,4.821,4.821v4.018q0,4.821-4.821,4.821h-.4a.815.815,0,0,0-.643.321L11,17.589a1.142,1.142,0,0,1-1.929,0L7.866,15.982A.908.908,0,0,0,7.223,15.661Z" transform="translate(-2 -2)" fill="none" stroke="#fff" stroke-linecap="round" stroke-linejoin="round" stroke-miterlimit="10" stroke-width="1.5"/>
      </g>
    </g>
  </svg>
  