<svg xmlns="http://www.w3.org/2000/svg" width="15.19" height="12.342" viewBox="0 0 15.19 12.342">
    <g id="briefcase-fill" transform="translate(0 -2.25)">
      <path id="Tracé_2953" data-name="Tracé 2953" d="M0,20.776A1.424,1.424,0,0,0,1.424,22.2H13.766a1.424,1.424,0,0,0,1.424-1.424V15.412L7.718,17.4a.475.475,0,0,1-.245,0L0,15.412Z" transform="translate(0 -7.608)" fill="#fff" fill-rule="evenodd"/>
      <path id="Tracé_2954" data-name="Tracé 2954" d="M0,5.573A1.424,1.424,0,0,1,1.424,4.149H13.766A1.424,1.424,0,0,1,15.19,5.573V6.887L7.962,8.814a1.424,1.424,0,0,1-.733,0L0,6.887Zm4.747-1.9A1.424,1.424,0,0,1,6.171,2.25H9.019a1.424,1.424,0,0,1,1.424,1.424v.475H9.494V3.674A.475.475,0,0,0,9.019,3.2H6.171a.475.475,0,0,0-.475.475v.475H4.747Z" fill="#fff" fill-rule="evenodd"/>
    </g>
  </svg>
  