<svg xmlns="http://www.w3.org/2000/svg" width="30" height="30" viewBox="0 0 30 30">
    <g id="Groupe_346" data-name="Groupe 346" transform="translate(-938 -17)">
      <circle id="Ellipse_129" data-name="Ellipse 129" cx="15" cy="15" r="15" transform="translate(938 17)" fill="#fff"/>
      <path id="close-circle" d="M18,3.375A14.625,14.625,0,1,0,32.625,18,14.642,14.642,0,0,0,18,3.375ZM23.3,21.7A1.125,1.125,0,1,1,21.7,23.3l-3.7-3.7-3.7,3.7A1.125,1.125,0,0,1,12.7,21.7l3.7-3.7-3.7-3.7A1.125,1.125,0,0,1,14.3,12.7l3.7,3.7,3.7-3.7A1.125,1.125,0,0,1,23.3,14.3l-3.7,3.7Z" transform="translate(935.112 13.884)" fill="#5d5d5d"/>
    </g>
  </svg>
  