<svg xmlns="http://www.w3.org/2000/svg" width="23.129" height="23.129" viewBox="0 0 23.129 23.129">
    <g id="emoji-happy" transform="translate(-2 -2)">
      <path id="Tracé_2925" data-name="Tracé 2925" d="M10.1,25.129h6.939c5.782,0,8.1-2.313,8.1-8.1V10.1c0-5.782-2.313-8.1-8.1-8.1H10.1C4.313,2,2,4.313,2,10.1v6.939C2,22.816,4.313,25.129,10.1,25.129Z" fill="#fff"/>
      <path id="Tracé_2926" data-name="Tracé 2926" d="M15.65,10.05A1.65,1.65,0,1,0,14,8.4,1.65,1.65,0,0,0,15.65,10.05Z" transform="translate(2.264 0.475)" fill="#ff3354"/>
      <path id="Tracé_2927" data-name="Tracé 2927" d="M8.65,10.05A1.65,1.65,0,1,0,7,8.4,1.65,1.65,0,0,0,8.65,10.05Z" transform="translate(0.564 0.475)" fill="#ff3354"/>
      <path id="Tracé_2928" data-name="Tracé 2928" d="M8.5,16.205a6.051,6.051,0,0,0,5.576,3.209,6.04,6.04,0,0,0,5.571-3.209" transform="translate(-0.509)" fill="none" stroke="#ff3354" stroke-linecap="round" stroke-width="1"/>
    </g>
  </svg>
  