<svg xmlns="http://www.w3.org/2000/svg" width="16.478" height="16.48" viewBox="0 0 16.478 16.48">
  <g id="edit" transform="translate(-1.5 -1.246)">
    <path id="Tracé_2929" data-name="Tracé 2929" d="M8.879,2H7.35C3.529,2,2,3.529,2,7.35v4.586c0,3.821,1.529,5.35,5.35,5.35h4.586c3.821,0,5.35-1.529,5.35-5.35V10.407" transform="translate(0 -0.059)" fill="none" stroke="#0091e2" stroke-linecap="round" stroke-linejoin="round" stroke-width="1"/>
    <path id="Tracé_2930" data-name="Tracé 2930" d="M13.921,2.72,7.9,8.743a2.073,2.073,0,0,0-.5,1.009l-.329,2.3a1.089,1.089,0,0,0,1.3,1.3l2.3-.329a2.141,2.141,0,0,0,1.009-.5L17.7,6.5c1.039-1.039,1.529-2.247,0-3.776S14.96,1.681,13.921,2.72Z" transform="translate(-1.19)" fill="none" stroke="#0091e2" stroke-linecap="round" stroke-linejoin="round" stroke-miterlimit="10" stroke-width="1"/>
    <path id="Tracé_2931" data-name="Tracé 2931" d="M14.91,4.15a5.46,5.46,0,0,0,3.776,3.776" transform="translate(-3.043 -0.566)" fill="none" stroke="#0091e2" stroke-linecap="round" stroke-linejoin="round" stroke-miterlimit="10" stroke-width="1"/>
  </g>
</svg>
