<svg xmlns="http://www.w3.org/2000/svg" width="30" height="30" viewBox="0 0 30 30">
  <g id="Groupe_344" data-name="Groupe 344" transform="translate(-59 -211)">
    <g id="Tracé_2946" data-name="Tracé 2946" transform="translate(59 211)" fill="#0091e2">
      <path d="M 19 29.5 L 11 29.5 C 5.210279941558838 29.5 0.5 24.78972053527832 0.5 19 L 0.5 11 C 0.5 5.210279941558838 5.210279941558838 0.5 11 0.5 L 19 0.5 C 24.78972053527832 0.5 29.5 5.210279941558838 29.5 11 L 29.5 19 C 29.5 24.78972053527832 24.78972053527832 29.5 19 29.5 Z" stroke="none"/>
      <path d="M 11 1 C 5.485979080200195 1 1 5.485979080200195 1 11 L 1 19 C 1 24.51401901245117 5.485979080200195 29 11 29 L 19 29 C 24.51401901245117 29 29 24.51401901245117 29 19 L 29 11 C 29 5.485979080200195 24.51401901245117 1 19 1 L 11 1 M 11 0 L 19 0 C 25.07513046264648 0 30 4.924869537353516 30 11 L 30 19 C 30 25.07513046264648 25.07513046264648 30 19 30 L 11 30 C 4.924869537353516 30 0 25.07513046264648 0 19 L 0 11 C 0 4.924869537353516 4.924869537353516 0 11 0 Z" stroke="none" fill="#0091e2"/>
    </g>
    <text id="News" transform="translate(63 229)" fill="#fff" font-size="8" font-family="Poppins-Medium, Poppins" font-weight="500"><tspan x="0" y="0">News</tspan></text>
  </g>
</svg>
