<svg xmlns="http://www.w3.org/2000/svg" width="24.129" height="24.129" viewBox="0 0 24.129 24.129">
    <path id="task-square" d="M18.41,2H8.719C4.509,2,2,4.509,2,8.719V18.41c0,4.209,2.509,6.719,6.719,6.719H18.41c4.209,0,6.719-2.509,6.719-6.719V8.719C25.129,4.509,22.619,2,18.41,2ZM11.217,16.918l-2.6,2.6A.858.858,0,0,1,8,19.775a.839.839,0,0,1-.613-.254l-.867-.867a.852.852,0,0,1,0-1.226.873.873,0,0,1,1.226,0L8,17.681l1.989-1.989a.867.867,0,0,1,1.226,1.226Zm0-8.1-2.6,2.6A.858.858,0,0,1,8,11.679a.839.839,0,0,1-.613-.254l-.867-.867a.852.852,0,0,1,0-1.226.873.873,0,0,1,1.226,0L8,9.586,9.991,7.6a.867.867,0,1,1,1.226,1.226Zm8.777,10.084H13.923a.867.867,0,1,1,0-1.735h6.071a.867.867,0,0,1,0,1.735Zm0-8.1H13.923a.867.867,0,1,1,0-1.735h6.071a.867.867,0,0,1,0,1.735Z" transform="translate(-1.5 -1.5)" fill="#fff" stroke="#fff" stroke-width="1"/>
  </svg>
  